<svg xmlns="http://www.w3.org/2000/svg" viewBox="0 0 3264 2448"><filter id="b"><feGaussianBlur stdDeviation="12" /></filter><path fill="#28271f" d="M0 0h3264v2448H0z"/><g filter="url(#b)" transform="translate(6.4 6.4) scale(12.75)" fill-opacity=".5"><ellipse fill="#fbc0af" rx="1" ry="1" transform="matrix(15.67073 -14.46053 23.41896 25.37889 185.3 80.5)"/><ellipse fill="#fffcc3" rx="1" ry="1" transform="matrix(-9.5185 1.03404 -3.7831 -34.82406 153.1 176.3)"/><ellipse fill="#5f644d" rx="1" ry="1" transform="matrix(30.5417 -.74642 1.42302 58.2265 231.6 136.6)"/><ellipse fill="#000209" cx="114" cy="23" rx="62" ry="62"/><ellipse fill="#000005" rx="1" ry="1" transform="matrix(-52.18863 -15.33143 14.48684 -49.31362 228.6 27)"/><ellipse fill="#070b01" cx="68" cy="126" rx="72" ry="60"/><ellipse fill="#d8f0f5" rx="1" ry="1" transform="matrix(-6.46104 -3.85155 8.39125 -14.07645 .1 72.2)"/><ellipse cx="239" cy="178" rx="9" ry="74"/></g></svg>